<svg height="512pt" viewBox="0 -64 512.00003 512" width="512pt" xmlns="http://www.w3.org/2000/svg" xmlns:xlink="http://www.w3.org/1999/xlink"><radialGradient id="a" cx="219.8856" cy="236.6077" gradientTransform="matrix(1.003821 .01024 -.00742902 .724028 1.761983 -.022577)" gradientUnits="userSpaceOnUse" r="291.6539"><stop offset="0" stop-color="#ffb92d"/><stop offset=".528" stop-color="#ffb72b"/><stop offset=".7181" stop-color="#fdb224"/><stop offset=".8537" stop-color="#faa919"/><stop offset=".9626" stop-color="#f79b08"/><stop offset="1" stop-color="#f59500"/></radialGradient><linearGradient id="b"><stop offset="0" stop-color="#be3f45" stop-opacity="0"/><stop offset="1" stop-color="#be3f45"/></linearGradient><linearGradient id="c" gradientUnits="userSpaceOnUse" x1="311.163114095" x2="219.4450009594" xlink:href="#b" y1="339.8786346596" y2="61.2847580886"/><linearGradient id="d" gradientUnits="userSpaceOnUse" x1="432.9346362226" x2="339.4393803626" xlink:href="#b" y1="299.592449506" y2="206.0972940382"/><linearGradient id="e" gradientUnits="userSpaceOnUse" x1="467.9359751838" x2="362.8433119876" xlink:href="#b" y1="281.1444792262" y2="199.7824238738"/><radialGradient id="f" cx="231.0476" cy="175.789" gradientTransform="matrix(1.003922 0 0 .679655 0 -6.99672)" gradientUnits="userSpaceOnUse" r="365.9734"><stop offset="0" stop-color="#8c6239"/><stop offset=".2209" stop-color="#885e36"/><stop offset=".4619" stop-color="#7a532e"/><stop offset=".7124" stop-color="#653f21"/><stop offset=".9681" stop-color="#46250e"/><stop offset="1" stop-color="#42210b"/></radialGradient><linearGradient id="g"><stop offset="0" stop-color="#3e2e28" stop-opacity="0"/><stop offset="1" stop-color="#503837"/></linearGradient><linearGradient id="h" gradientUnits="userSpaceOnUse" x1="364.293678101" x2="340.3684097814" xlink:href="#g" y1="202.2453457164" y2="189.0864381014"/><linearGradient id="i" gradientUnits="userSpaceOnUse" x1="444.075359441" x2="426.3964938054" xlink:href="#g" y1="247.7054436814" y2="230.0265780458"/><linearGradient id="j" gradientUnits="userSpaceOnUse" x1="416.281778871" x2="394.0612704996" xlink:href="#g" y1="173.8168848736" y2="151.5964768944"/><linearGradient id="k" gradientUnits="userSpaceOnUse" x1="387.8924709862" x2="380.714830255" xlink:href="#g" y1="255.7821969558" y2="236.44274394"/><linearGradient id="l" gradientUnits="userSpaceOnUse" x1="469.6729610282" x2="462.29604178" xlink:href="#g" y1="194.1177939888" y2="176.971408582"/><linearGradient id="m"><stop offset="0" stop-color="#acfcd9"/><stop offset=".9655" stop-color="#53d6be"/></linearGradient><linearGradient id="n" gradientUnits="userSpaceOnUse" x1="333.2716851634" x2="355.577125336" xlink:href="#m" y1="187.2126176884" y2="187.2126176884"/><linearGradient id="o" gradientUnits="userSpaceOnUse" x1="403.6585640352" x2="379.7333961078" xlink:href="#g" y1="97.272048846" y2="84.1132416232"/><linearGradient id="p" gradientUnits="userSpaceOnUse" x1="372.6366714898" x2="394.9421116624" xlink:href="#m" y1="82.2394212102" y2="82.2394212102"/><linearGradient id="q"><stop offset="0" stop-color="#ff4c54"/><stop offset=".2336" stop-color="#fa4b53"/><stop offset=".496" stop-color="#ed4850"/><stop offset=".7713" stop-color="#d6444b"/><stop offset="1" stop-color="#be3f45"/></linearGradient><linearGradient id="r" gradientUnits="userSpaceOnUse" x1="411.890122082" x2="434.6824644246" xlink:href="#q" y1="226.9163272976" y2="226.9163272976"/><linearGradient id="s" gradientUnits="userSpaceOnUse" x1="347.6191360342" x2="329.9402703986" xlink:href="#g" y1="62.295908327" y2="44.6170426914"/><linearGradient id="t" gradientUnits="userSpaceOnUse" x1="315.433798283" x2="338.2261406256" xlink:href="#q" y1="41.5067919432" y2="41.5067919432"/><linearGradient id="u" gradientUnits="userSpaceOnUse" x1="76.101805249" x2="58.4228392212" xlink:href="#g" y1="134.9697215148" y2="117.2908558792"/><linearGradient id="v" gradientUnits="userSpaceOnUse" x1="43.9164674978" x2="66.7088098404" xlink:href="#q" y1="114.180605131" y2="114.180605131"/><linearGradient id="w"><stop offset="0" stop-color="#faa4bd"/><stop offset=".1419" stop-color="#f49dba"/><stop offset=".3557" stop-color="#e388b3"/><stop offset=".615" stop-color="#c766a6"/><stop offset=".9074" stop-color="#a03795"/><stop offset="1" stop-color="#93278f"/></linearGradient><linearGradient id="x" gradientUnits="userSpaceOnUse" x1="392.7069797216" x2="408.7732454486" xlink:href="#w" y1="158.2752687838" y2="158.2752687838"/><linearGradient id="y" gradientUnits="userSpaceOnUse" x1="208.3241553966" x2="186.1036470252" xlink:href="#g" y1="61.7836069304" y2="39.563098559"/><linearGradient id="z" gradientUnits="userSpaceOnUse" x1="184.749255855" x2="200.8156219742" xlink:href="#w" y1="46.2419908406" y2="46.2419908406"/><linearGradient id="A"><stop offset="0" stop-color="#fff465"/><stop offset=".3428" stop-color="#fff463"/><stop offset=".5215" stop-color="#fff35b"/><stop offset=".6623" stop-color="#fff14d"/><stop offset=".7832" stop-color="#ffee3a"/><stop offset=".8915" stop-color="#ffeb22"/><stop offset=".9894" stop-color="#ffe704"/><stop offset="1" stop-color="#ffe600"/></linearGradient><radialGradient id="B" cx="373.134717194" cy="231.474333962" gradientUnits="userSpaceOnUse" r="14.8601538362" xlink:href="#A"/><linearGradient id="C" gradientUnits="userSpaceOnUse" x1="220.964738083" x2="197.0395701556" xlink:href="#g" y1="234.544829399" y2="221.385921784"/><linearGradient id="D" gradientUnits="userSpaceOnUse" x1="314.3103091728" x2="296.6314435372" xlink:href="#g" y1="284.3547206056" y2="266.67585497"/><linearGradient id="E" gradientUnits="userSpaceOnUse" x1="244.5635309682" x2="237.3859906292" xlink:href="#g" y1="288.0816806384" y2="268.7421272304"/><linearGradient id="F" gradientUnits="userSpaceOnUse" x1="189.9428455376" x2="212.2482857102" xlink:href="#m" y1="219.512101371" y2="219.512101371"/><linearGradient id="G" gradientUnits="userSpaceOnUse" x1="282.1250718138" x2="304.9173137642" xlink:href="#q" y1="263.5656042218" y2="263.5656042218"/><radialGradient id="H" cx="229.8058775682" cy="263.7738176446" gradientUnits="userSpaceOnUse" r="14.8601538362" xlink:href="#A"/><linearGradient id="I" gradientUnits="userSpaceOnUse" x1="455.978360634" x2="448.800820295" xlink:href="#g" y1="124.1407160774" y2="104.8011626694"/><radialGradient id="J" cx="441.2206068418" cy="99.8327526914" gradientUnits="userSpaceOnUse" r="14.8601538362" xlink:href="#A"/><linearGradient id="K" gradientUnits="userSpaceOnUse" x1="113.972754855" x2="90.0475869276" xlink:href="#g" y1="72.0381681994" y2="58.8792605844"/><linearGradient id="L" gradientUnits="userSpaceOnUse" x1="148.1240730588" x2="140.9465327198" xlink:href="#g" y1="110.0097107898" y2="90.6700569896"/><linearGradient id="M" gradientUnits="userSpaceOnUse" x1="82.9508623096" x2="105.2563024822" xlink:href="#m" y1="57.0054401714" y2="57.0054401714"/><radialGradient id="N" cx="133.3663192666" cy="85.7017474038" gradientUnits="userSpaceOnUse" r="14.8601538362" xlink:href="#A"/><linearGradient id="O"><stop offset="0" stop-color="#cfffb4"/><stop offset="1" stop-color="#8ee388"/></linearGradient><linearGradient id="P" gradientUnits="userSpaceOnUse" x1="439.1426890862" x2="474.6033223624" xlink:href="#O" y1="176.4462569838" y2="176.4462569838"/><linearGradient id="Q" gradientUnits="userSpaceOnUse" x1="296.0633240774" x2="288.6864048292" xlink:href="#g" y1="228.435964029" y2="211.2895786222"/><linearGradient id="R" gradientUnits="userSpaceOnUse" x1="265.5330521354" x2="300.9936854116" xlink:href="#O" y1="210.764427024" y2="210.764427024"/><linearGradient id="S" gradientUnits="userSpaceOnUse" x1="272.8481297884" x2="265.4712105402" xlink:href="#g" y1="58.8638001856" y2="41.7174147788"/><linearGradient id="T" gradientUnits="userSpaceOnUse" x1="242.3177574542" x2="277.7783907304" xlink:href="#O" y1="41.1922631806" y2="41.1922631806"/><linearGradient id="U" gradientUnits="userSpaceOnUse" x1="69.5610526346" x2="45.635784315" xlink:href="#g" y1="207.2921620026" y2="194.1332543876"/><linearGradient id="V" gradientUnits="userSpaceOnUse" x1="149.3428343668" x2="131.663868339" xlink:href="#g" y1="252.7522599676" y2="235.073394332"/><linearGradient id="W" gradientUnits="userSpaceOnUse" x1="121.5491534046" x2="99.3286450332" xlink:href="#g" y1="178.8637011598" y2="156.6432931806"/><linearGradient id="X" gradientUnits="userSpaceOnUse" x1="93.1598455198" x2="85.9823051808" xlink:href="#g" y1="260.829013242" y2="241.489459834"/><linearGradient id="Y" gradientUnits="userSpaceOnUse" x1="174.9403355618" x2="167.5634163136" xlink:href="#g" y1="199.164610275" y2="182.018124476"/><linearGradient id="Z" gradientUnits="userSpaceOnUse" x1="38.539059697" x2="60.8446002618" xlink:href="#m" y1="192.2594339746" y2="192.2594339746"/><linearGradient id="aa" gradientUnits="userSpaceOnUse" x1="117.1574966156" x2="139.9498389582" xlink:href="#q" y1="231.9631435838" y2="231.9631435838"/><linearGradient id="ab" gradientUnits="userSpaceOnUse" x1="97.9743542552" x2="114.0406199822" xlink:href="#w" y1="163.32208507" y2="163.32208507"/><radialGradient id="ac" cx="78.4020917276" cy="236.5211502482" gradientUnits="userSpaceOnUse" r="14.8601538362" xlink:href="#A"/><linearGradient id="ad" gradientUnits="userSpaceOnUse" x1="144.4100636198" x2="179.870696896" xlink:href="#O" y1="181.49307327" y2="181.49307327"/><path d="m255.996094 0c-141.382813 0-255.996094 85.960938-255.996094 192s114.613281 191.996094 255.996094 191.996094c141.386718 0 256-85.957032 256-191.996094s-114.613282-192-256-192zm0 192c-49.777344 0-90.132813-19.992188-90.132813-44.652344s40.355469-44.652344 90.132813-44.652344c49.78125 0 90.136718 19.992188 90.136718 44.652344s-40.355468 44.652344-90.136718 44.652344zm0 0" fill="url(#a)"/><path d="m510.929688 174.386719c-11.644532-96.082031-117.679688-171.707031-247.984376-174.3164065-2.308593-.03125-4.621093-.06640625-6.941406-.06640625-2.078125 0-4.15625.01171875-6.234375.05468755-130.679687 2.3476562-237.082031 78.1210942-248.703125 174.4179682.125.828126.253906 1.648438.398438 2.464844.132812.773438.265625 1.550782.421875 2.324219.011719.074219.023437.140625.042969.21875.15625.796875.320312 1.582031.5 2.367187.175781.808594.363281 1.613282.5625 2.433594.199218.773438.398437 1.546875.609374 2.332032.230469.894531.496094 1.789062.761719 2.6875.464844 1.535156.960938 3.0625 1.492188 4.585937.554687 1.582031 1.140625 3.164063 1.769531 4.730469.632812 1.5625 1.292969 3.117187 1.992188 4.667968.007812.042969.03125.085938.054687.132813.339844.730469.683594 1.457031 1.027344 2.1875.332031.675781.664062 1.359375.996093 2.035156.066407.152344.140626.296875.230469.441407 6.953125 13.6875 16.78125 26.578124 29.042969 38.398437l.441406.453125c.066406.066406.132813.121094.199219.1875l124.765625 124.765625c27.894531 7.824219 58.085938 12.105469 89.628906 12.105469 141.378906 0 255.996094-85.960938 255.996094-191.996094 0-5.9375-.363281-11.808594-1.070312-17.613281zm-345.0625-35.265625c0-29.210938 40.351562-52.890625 90.136718-52.890625 49.773438 0 90.128906 23.679687 90.128906 52.890625 0 1.503906-.113281 2.984375-.320312 4.453125.207031 1.25.320312 2.5.320312 3.769531 0 24.667969-40.355468 44.65625-90.128906 44.65625-49.785156 0-90.136718-19.988281-90.136718-44.65625 0-1.269531.109374-2.519531.320312-3.769531-.210938-1.46875-.320312-2.949219-.320312-4.453125zm0 0" fill="url(#c)"/><path d="m512 192c0-5.9375-.363281-11.808594-1.070312-17.613281-1.15625-9.53125-3.253907-18.859375-6.199219-27.9375-26.5625 81.9375-123.199219 143.296875-239.628907 146.351562v52.421875c0 7.652344 3.097657 14.570313 8.105469 19.578125l17.433594 17.4375c124.996094-12.683593 221.359375-93.015625 221.359375-190.238281zm0 0" fill="url(#d)"/><path d="m512 192c0-5.9375-.363281-11.808594-1.070312-17.613281-1.15625-9.527344-3.253907-18.851563-6.195313-27.925781-6.628906 20.433593-17.617187 39.582031-32.179687 56.871093-.070313.085938-.144532.167969-.214844.253907-.839844.996093-1.691406 1.984374-2.554688 2.964843-.058594.066407-.117187.132813-.175781.199219-2.761719 3.128906-5.644531 6.195312-8.640625 9.195312-.140625.140626-.28125.28125-.425781.421876-.828125.824218-1.660157 1.640624-2.507813 2.453124-.207031.203126-.417968.402344-.628906.605469-.816406.78125-1.640625 1.554688-2.476562 2.324219-.195313.183594-.390626.367188-.589844.546875-1.003906.921875-2.015625 1.835937-3.039063 2.746094-.011719.007812-.023437.015625-.03125.027343-1.066406.941407-2.144531 1.878907-3.238281 2.804688-.175781.148438-.355469.296875-.535156.449219-.863282.730469-1.734375 1.457031-2.613282 2.175781-.339843.28125-.683593.554688-1.023437.832031-.730469.59375-1.46875 1.183594-2.210937 1.765625-.390626.3125-.78125.621094-1.175782.925782-.722656.5625-1.449218 1.121093-2.179687 1.679687-.394531.296875-.78125.597656-1.179688.894531-.839843.628906-1.691406 1.257813-2.542969 1.878906-.28125.207032-.558593.414063-.84375.621094-1.082031.78125-2.175781 1.558594-3.277343 2.328125-.488281.339844-.984375.675781-1.472657 1.015625-.652343.445313-1.304687.894532-1.960937 1.335938-.5625.382812-1.132813.757812-1.703125 1.136718-.589844.390626-1.183594.777344-1.777344 1.164063-.605468.394531-1.214844.789063-1.828125 1.179687-.554687.355469-1.117187.707032-1.679687 1.058594-.644532.402344-1.289063.808594-1.941406 1.210938-.488282.296875-.980469.59375-1.472657.890625-1.441406.871093-2.894531 1.734375-4.363281 2.582031-.355469.207031-.710938.417969-1.070312.621094-.78125.449218-1.574219.890625-2.363282 1.332031-.4375.246094-.878906.492187-1.320312.738281-.796875.4375-1.597656.871094-2.398438 1.304688-.429687.230468-.855468.460937-1.285156.6875-.835938.445312-1.671875.882812-2.515625 1.320312-.351563.183594-.707031.363282-1.058594.542969-4.25 2.179687-8.589843 4.261719-13.015625 6.25-.261718.117187-.523437.234375-.785156.351563-1.007812.449218-2.023438.890624-3.039062 1.332031-.269532.113281-.542969.230469-.8125.347656-1.054688.449219-2.117188.898437-3.183594 1.339844-.117188.046875-.234375.097656-.355469.144531-4.800781 1.976562-9.695313 3.84375-14.675781 5.59375-.144532.050781-.289063.101562-.433594.152344-1.179688.410156-2.363281.816406-3.550781 1.214844-.144531.046874-.292969.097656-.4375.144531-6.382813 2.128906-12.902344 4.070312-19.546875 5.808593-.058594.015626-.117188.03125-.175782.046876v49.847656c.527344 5.890625 3.277344 11.144531 7.40625 14.917968l18.355469 18.355469c86.339844-30.855469 146.011719-96.890625 146.011719-173.394531zm0 0" fill="url(#e)"/><path d="m511.996094 159.769531c0-88.238281-114.613282-159.769531-256-159.769531-141.382813 0-255.996094 71.53125-255.996094 159.769531 0 80.710938 95.898438 147.445313 220.464844 158.242188 4.5.390625 11.761718.699219 19.144531.929687 14.203125.441406 25.492187 12.074219 25.492187 26.28125 0 15.296875 12.398438 27.695313 27.695313 27.695313s27.695313-12.398438 27.695313-27.695313v-22.632812c0-4.679688 3.339843-8.695313 7.945312-9.542969l.210938-.039063c5.96875-1.101562 11.472656 3.476563 11.472656 9.546876v7.484374c0 12.710938 10.304687 23.011719 23.011718 23.011719 12.707032 0 23.011719-10.304687 23.011719-23.011719v-39.605468c0-7.085938 4.292969-13.453125 10.84375-16.15625.121094-.050782.242188-.097656.363281-.148438 11.476563-4.753906 24.089844 3.734375 24.089844 16.15625v3.925782c0 11.726562 9.503906 21.230468 21.234375 21.230468 11.726563 0 21.230469-9.503906 21.230469-21.230468v-14.90625c0-15.332032 5.441406-30.257813 15.675781-41.675782 20.640625-23.035156 32.414063-49.589844 32.414063-77.859375zm-256 32.230469c-49.777344 0-90.132813-23.675781-90.132813-52.882812 0-29.207032 40.355469-52.882813 90.132813-52.882813 49.78125 0 90.136718 23.675781 90.136718 52.882813 0 29.207031-40.355468 52.882812-90.136718 52.882812zm0 0" fill="url(#f)"/><g fill="#ff931e"><path d="m102.742188 312.066406c-1.652344-1.214844-3.976563-.859375-5.191407.792969-1.214843 1.65625-.859375 3.980469.792969 5.195313 1.652344 1.210937 3.976562.855468 5.191406-.796876 1.214844-1.652343.859375-3.976562-.792968-5.191406zm0 0"/><path d="m77.664062 283.238281c-2.617187-1.925781-6.296874-1.363281-8.222656 1.253907-1.921875 2.621093-1.359375 6.300781 1.257813 8.222656 2.617187 1.921875 6.300781 1.359375 8.222656-1.257813 1.921875-2.617187 1.359375-6.296875-1.257813-8.21875zm0 0"/><path d="m81.960938 302.832031c-4.027344-2.957031-9.691407-2.089843-12.648438 1.9375-2.957031 4.023438-2.09375 9.6875 1.933594 12.644531 4.027344 2.960938 9.691406 2.09375 12.648437-1.933593 2.957031-4.027344 2.09375-9.6875-1.933593-12.648438zm0 0"/></g><path d="m354.453125 171.273438c-.414063-.492188-.925781-.910157-1.539063-1.214844-2.371093-1.171875-5.242187-.203125-6.414062 2.167968l-12.730469 25.730469c-.949219 1.914063-.480469 4.144531.984375 5.554688l17.882813 17.882812c.414062.492188.929687.914063 1.539062 1.21875 2.371094 1.167969 5.238281.199219 6.414063-2.167969l12.734375-25.734374c.945312-1.914063.476562-4.144532-.988281-5.550782zm0 0" fill="url(#h)"/><path d="m420.078125 210.839844c-1.433594-1.460938-3.695313-1.90625-5.605469-.914063-2.347656 1.21875-3.261718 4.105469-2.042968 6.453125l13.21875 25.484375c.308593.589844.722656 1.089844 1.203124 1.488281l17.886719 17.886719c1.433594 1.460938 3.691407 1.902344 5.605469.910157 2.34375-1.214844 3.257812-4.101563 2.042969-6.449219l-13.222657-25.484375c-.304687-.59375-.71875-1.09375-1.203124-1.492188zm0 0" fill="url(#i)"/><path d="m407.585938 141.160156c-.636719-.738281-1.496094-1.292968-2.515626-1.527344-2.574218-.597656-5.148437 1.003907-5.746093 3.578126l-6.492188 27.964843c-.402343 1.730469.207031 3.445313 1.417969 4.574219l17.886719 17.886719c.636719.734375 1.496093 1.289062 2.515625 1.527343 2.574218.59375 5.148437-1.007812 5.742187-3.582031l6.496094-27.964843c.402344-1.730469-.207031-3.445313-1.417969-4.574219zm0 0" fill="url(#j)"/><path d="m388.753906 236.003906c-.277344-.304687-.582031-.59375-.949218-.828125l-24.183594-15.464843c-2.226563-1.425782-5.1875-.773438-6.609375 1.449218-1.285157 2.011719-.867188 4.605469.859375 6.144532l17.886718 17.882812c.277344.304688.582032.59375.949219.828125l24.1875 15.46875c2.222657 1.421875 5.183594.769531 6.605469-1.453125 1.285156-2.011719.871094-4.605469-.859375-6.140625zm0 0" fill="url(#k)"/><path d="m473.265625 166.957031c-1.390625-1.460937-3.601563-1.953125-5.515625-1.03125l-25.890625 12.410157c-2.382813 1.144531-3.386719 4.003906-2.246094 6.386718.300781.625.726563 1.152344 1.222657 1.574219l17.886718 17.882813c1.390625 1.460937 3.601563 1.949218 5.519532 1.03125l25.886718-12.414063c2.382813-1.140625 3.386719-4 2.246094-6.382813-.300781-.625-.726562-1.152343-1.222656-1.574218zm0 0" fill="url(#l)"/><path d="m335.933594 204.367188c-2.367188-1.171876-3.335938-4.042969-2.164063-6.410157l12.734375-25.734375c1.171875-2.367187 4.042969-3.335937 6.410156-2.164062 2.367188 1.171875 3.335938 4.042968 2.164063 6.410156l-12.730469 25.730469c-1.171875 2.371093-4.042968 3.339843-6.414062 2.167969zm0 0" fill="url(#n)"/><path d="m393.816406 66.300781c-.410156-.492187-.925781-.914062-1.539062-1.214843-2.367188-1.171876-5.238282-.203126-6.410156 2.164062l-12.734376 25.734375c-.945312 1.914063-.476562 4.144531.984376 5.550781l17.886718 17.886719c.414063.492187.925782.914063 1.539063 1.214844 2.367187 1.171875 5.238281.203125 6.410156-2.164063l12.734375-25.734375c.949219-1.914062.476562-4.144531-.984375-5.550781zm0 0" fill="url(#o)"/><path d="m375.300781 99.394531c-2.367187-1.171875-3.339843-4.042969-2.167969-6.410156l12.734376-25.734375c1.171874-2.367188 4.042968-3.335938 6.410156-2.164062 2.371094 1.167968 3.339844 4.042968 2.167968 6.410156l-12.734374 25.730468c-1.171876 2.371094-4.042969 3.339844-6.410157 2.167969zm0 0" fill="url(#p)"/><path d="m432.101562 243.90625c-2.347656 1.21875-5.234374.300781-6.453124-2.042969l-13.21875-25.484375c-1.21875-2.347656-.304688-5.234375 2.042968-6.453125 2.34375-1.214843 5.234375-.300781 6.449219 2.042969l13.222656 25.488281c1.214844 2.34375.300781 5.234375-2.042969 6.449219zm0 0" fill="url(#r)"/><path d="m323.621094 25.429688c-1.433594-1.460938-3.691406-1.90625-5.605469-.914063-2.34375 1.21875-3.261719 4.105469-2.042969 6.453125l13.21875 25.484375c.308594.589844.722656 1.089844 1.207032 1.488281l17.882812 17.886719c1.433594 1.460937 3.691406 1.90625 5.605469.914063 2.347656-1.21875 3.261719-4.105469 2.042969-6.453126l-13.21875-25.484374c-.308594-.59375-.722657-1.089844-1.203126-1.488282zm0 0" fill="url(#s)"/><path d="m335.644531 58.496094c-2.347656 1.21875-5.234375.300781-6.453125-2.042969l-13.21875-25.484375c-1.21875-2.347656-.300781-5.234375 2.042969-6.453125 2.347656-1.214844 5.234375-.300781 6.449219 2.042969l13.222656 25.488281c1.21875 2.34375.300781 5.234375-2.042969 6.449219zm0 0" fill="url(#t)"/><path d="m52.105469 98.101562c-1.433594-1.460937-3.695313-1.902343-5.605469-.910156-2.347656 1.214844-3.261719 4.101563-2.046875 6.449219l13.222656 25.484375c.308594.59375.71875 1.089844 1.203125 1.488281l17.886719 17.886719c1.433594 1.460938 3.691406 1.90625 5.601563.914062 2.347656-1.21875 3.261718-4.105468 2.046874-6.453124l-13.222656-25.484376c-.304687-.589843-.71875-1.089843-1.203125-1.488281zm0 0" fill="url(#u)"/><path d="m64.125 131.171875c-2.34375 1.214844-5.234375.300781-6.449219-2.046875l-13.222656-25.484375c-1.214844-2.347656-.300781-5.234375 2.046875-6.449219 2.34375-1.21875 5.234375-.304687 6.449219 2.042969l13.222656 25.484375c1.214844 2.347656.300781 5.234375-2.046875 6.453125zm0 0" fill="url(#v)"/><path d="m396.410156 176.917969c-2.574218-.597657-4.175781-3.167969-3.578125-5.742188l6.492188-27.964843c.597656-2.574219 3.171875-4.179688 5.746093-3.582032 2.574219.597656 4.175782 3.171875 3.578126 5.746094l-6.496094 27.964844c-.597656 2.574218-3.167969 4.175781-5.742188 3.578125zm0 0" fill="url(#x)"/><path d="m199.628906 29.125c-.636718-.734375-1.496094-1.289062-2.515625-1.527344-2.574219-.597656-5.148437 1.003906-5.746093 3.578125l-6.492188 27.96875c-.402344 1.730469.203125 3.441407 1.417969 4.574219l17.886719 17.882812c.636718.734376 1.496093 1.289063 2.515624 1.527344 2.574219.597656 5.144532-1.003906 5.742188-3.578125l6.496094-27.96875c.402344-1.730469-.207032-3.441406-1.421875-4.574219zm0 0" fill="url(#y)"/><path d="m188.453125 64.886719c-2.574219-.597657-4.175781-3.167969-3.578125-5.742188l6.492188-27.96875c.597656-2.574219 3.171874-4.175781 5.746093-3.578125s4.175781 3.167969 3.578125 5.742188l-6.496094 27.96875c-.597656 2.574218-3.167968 4.175781-5.742187 3.578125zm0 0" fill="url(#z)"/><path d="m357.007812 221.160156c1.425782-2.222656 4.386719-2.875 6.609376-1.449218l24.1875 15.464843c2.226562 1.425781 2.878906 4.386719 1.453124 6.609375-1.425781 2.226563-4.382812 2.878906-6.609374 1.453125l-24.1875-15.46875c-2.222657-1.421875-2.875-4.382812-1.453126-6.609375zm0 0" fill="url(#B)"/><path d="m211.125 203.574219c-.414062-.492188-.925781-.914063-1.539062-1.214844-2.371094-1.171875-5.242188-.203125-6.414063 2.164063l-12.730469 25.734374c-.949218 1.914063-.476562 4.144532.984375 5.550782l17.886719 17.886718c.410156.492188.925781.914063 1.539062 1.214844 2.367188 1.171875 5.238282.203125 6.410157-2.164062l12.734375-25.734375c.945312-1.914063.476562-4.144531-.988282-5.550781zm0 0" fill="url(#C)"/><path d="m290.3125 247.488281c-1.433594-1.460937-3.691406-1.90625-5.605469-.914062-2.347656 1.21875-3.261719 4.105469-2.042969 6.453125l13.21875 25.484375c.308594.589843.722657 1.089843 1.203126 1.488281l17.886718 17.886719c1.433594 1.460937 3.691406 1.90625 5.605469.914062 2.34375-1.21875 3.261719-4.105469 2.042969-6.453125l-13.21875-25.484375c-.308594-.59375-.722656-1.089843-1.207032-1.488281zm0 0" fill="url(#D)"/><path d="m245.425781 268.304688c-.277343-.308594-.582031-.59375-.949219-.828126l-24.1875-15.46875c-2.222656-1.421874-5.183593-.773437-6.605468 1.453126-1.285156 2.011718-.871094 4.605468.859375 6.140624l17.886719 17.886719c.277343.304688.582031.589844.949218.824219l24.183594 15.46875c2.226562 1.425781 5.1875.773438 6.609375-1.453125 1.285156-2.007813.867187-4.605469-.859375-6.140625zm0 0" fill="url(#E)"/><path d="m192.605469 236.667969c-2.367188-1.171875-3.335938-4.042969-2.164063-6.414063l12.730469-25.730468c1.171875-2.367188 4.042969-3.339844 6.414063-2.167969 2.367187 1.171875 3.335937 4.042969 2.164062 6.410156l-12.734375 25.734375c-1.167969 2.367188-4.039063 3.339844-6.410156 2.167969zm0 0" fill="url(#F)"/><path d="m302.335938 280.554688c-2.347657 1.21875-5.234376.300781-6.453126-2.042969l-13.21875-25.484375c-1.21875-2.347656-.300781-5.234375 2.042969-6.453125 2.347657-1.214844 5.234375-.300781 6.453125 2.046875l13.21875 25.484375c1.21875 2.34375.300782 5.234375-2.042968 6.449219zm0 0" fill="url(#G)"/><path d="m213.683594 253.460938c1.421875-2.226563 4.382812-2.878907 6.605468-1.453126l24.1875 15.46875c2.226563 1.425782 2.878907 4.382813 1.453126 6.609376-1.421876 2.226562-4.382813 2.878906-6.609376 1.453124l-24.1875-15.46875c-2.226562-1.425781-2.875-4.382812-1.449218-6.609374zm0 0" fill="url(#H)"/><path d="m456.839844 104.363281c-.277344-.308593-.582032-.59375-.949219-.828125l-24.183594-15.46875c-2.226562-1.421875-5.1875-.773437-6.609375 1.453125-1.285156 2.011719-.867187 4.605469.859375 6.140625l17.886719 17.886719c.277344.304687.582031.589844.949219.824219l24.1875 15.46875c2.222656 1.425781 5.183593.773437 6.605469-1.453125 1.285156-2.007813.871093-4.605469-.859376-6.140625zm0 0" fill="url(#I)"/><path d="m425.09375 89.519531c1.425781-2.222656 4.386719-2.875 6.609375-1.453125l24.1875 15.46875c2.226563 1.425782 2.878906 4.382813 1.453125 6.609375-1.421875 2.226563-4.382812 2.878907-6.609375 1.453125l-24.1875-15.46875c-2.222656-1.421875-2.875-4.382812-1.453125-6.609375zm0 0" fill="url(#J)"/><path d="m104.132812 41.066406c-.414062-.492187-.925781-.914062-1.539062-1.214844-2.371094-1.171874-5.242188-.203124-6.410156 2.164063l-12.734375 25.734375c-.949219 1.914062-.476563 4.144531.984375 5.550781l17.886718 17.886719c.410157.492188.925782.914062 1.539063 1.214844 2.367187 1.171875 5.238281.203125 6.410156-2.164063l12.734375-25.734375c.945313-1.914062.476563-4.144531-.984375-5.550781zm0 0" fill="url(#K)"/><path d="m148.988281 90.230469c-.28125-.304688-.585937-.589844-.949219-.824219l-24.1875-15.46875c-2.226562-1.425781-5.1875-.773438-6.609374 1.453125-1.285157 2.007813-.867188 4.605469.859374 6.140625l17.886719 17.882812c.277344.308594.585938.59375.949219.828126l24.1875 15.46875c2.226562 1.421874 5.183594.773437 6.609375-1.453126 1.285156-2.011718.867187-4.605468-.863281-6.140624zm0 0" fill="url(#L)"/><path d="m85.613281 74.160156c-2.367187-1.171875-3.335937-4.042968-2.164062-6.410156l12.734375-25.734375c1.167968-2.367187 4.039062-3.335937 6.410156-2.164063 2.367188 1.167969 3.335938 4.039063 2.164062 6.410157l-12.730468 25.730469c-1.171875 2.371093-4.042969 3.339843-6.414063 2.167968zm0 0" fill="url(#M)"/><path d="m117.242188 75.390625c1.421874-2.226563 4.382812-2.878906 6.609374-1.453125l24.1875 15.46875c2.222657 1.421875 2.875 4.382812 1.449219 6.609375-1.421875 2.222656-4.382812 2.875-6.605469 1.449219l-24.1875-15.464844c-2.226562-1.425781-2.875-4.386719-1.453124-6.609375zm0 0" fill="url(#N)"/><path d="m474.132812 168.171875c1.140626 2.382813.136719 5.242187-2.246093 6.382813l-25.886719 12.414062c-2.382812 1.140625-5.242188.136719-6.386719-2.246094-1.140625-2.382812-.136719-5.242187 2.246094-6.386718l25.890625-12.410157c2.382812-1.144531 5.238281-.136719 6.382812 2.246094zm0 0" fill="url(#P)"/><path d="m299.65625 201.273438c-1.390625-1.460938-3.601562-1.949219-5.515625-1.03125l-25.890625 12.414062c-2.382812 1.140625-3.386719 4-2.246094 6.382812.300782.628907.726563 1.152344 1.222656 1.574219l17.886719 17.886719c1.390625 1.460938 3.601563 1.949219 5.519531 1.027344l25.886719-12.410156c2.382813-1.144532 3.386719-4 2.246094-6.386719-.300781-.625-.726563-1.148438-1.222656-1.570313zm0 0" fill="url(#Q)"/><path d="m300.523438 202.488281c1.140624 2.382813.136718 5.242188-2.246094 6.382813l-25.890625 12.414062c-2.382813 1.144532-5.238281.136719-6.382813-2.246094-1.140625-2.382812-.136718-5.242187 2.246094-6.382812l25.886719-12.414062c2.382812-1.140626 5.242187-.136719 6.386719 2.246093zm0 0" fill="url(#R)"/><path d="m276.441406 31.703125c-1.390625-1.460937-3.601562-1.949219-5.519531-1.03125l-25.886719 12.414063c-2.382812 1.140624-3.386718 4-2.246094 6.382812.300782.625.726563 1.152344 1.222657 1.574219l17.886719 17.882812c1.390624 1.460938 3.601562 1.949219 5.515624 1.03125l25.890626-12.414062c2.382812-1.140625 3.386718-4 2.246093-6.382813-.300781-.625-.726562-1.152344-1.222656-1.574218zm0 0" fill="url(#S)"/><path d="m277.308594 32.917969c1.140625 2.382812.136718 5.242187-2.246094 6.382812l-25.890625 12.414063c-2.378906 1.140625-5.238281.136718-6.382813-2.246094-1.140624-2.382812-.136718-5.242188 2.246094-6.382812l25.886719-12.414063c2.382813-1.140625 5.242187-.136719 6.386719 2.246094zm0 0" fill="url(#T)"/><path d="m59.71875 176.320312c-.410156-.492187-.925781-.914062-1.539062-1.214843-2.367188-1.171875-5.238282-.203125-6.410157 2.164062l-12.734375 25.734375c-.949218 1.914063-.476562 4.144532.984375 5.554688l17.886719 17.882812c.414062.492188.925781.914063 1.539062 1.21875 2.367188 1.167969 5.238282.199219 6.410157-2.167968l12.734375-25.734376c.949218-1.914062.476562-4.144531-.984375-5.550781zm0 0" fill="url(#U)"/><path d="m125.34375 215.886719c-1.433594-1.460938-3.691406-1.90625-5.605469-.914063-2.34375 1.21875-3.257812 4.105469-2.042969 6.453125l13.222657 25.484375c.304687.589844.71875 1.089844 1.203125 1.488282l17.882812 17.882812c1.433594 1.464844 3.695313 1.90625 5.605469.914062 2.347656-1.214843 3.261719-4.105468 2.042969-6.449218l-13.21875-25.484375c-.304688-.59375-.71875-1.09375-1.203125-1.492188zm0 0" fill="url(#V)"/><path d="m112.855469 146.207031c-.640625-.738281-1.5-1.292969-2.519531-1.527343-2.574219-.597657-5.144532 1.003906-5.742188 3.578124l-6.496094 27.964844c-.398437 1.730469.207032 3.445313 1.421875 4.574219l17.882813 17.886719c.640625.734375 1.5 1.289062 2.519531 1.527344 2.574219.597656 5.144531-1.007813 5.742187-3.582032l6.496094-27.964844c.398438-1.730468-.207031-3.445312-1.421875-4.574218zm0 0" fill="url(#W)"/><path d="m94.023438 241.050781c-.277344-.304687-.585938-.59375-.949219-.828125l-24.1875-15.464844c-2.226563-1.425781-5.183594-.773437-6.609375 1.449219-1.285156 2.011719-.867188 4.605469.863281 6.144531l17.882813 17.882813c.277343.304687.585937.59375.949218.828125l24.1875 15.464844c2.226563 1.425781 5.1875.773437 6.609375-1.449219 1.285157-2.011719.867188-4.605469-.863281-6.144531zm0 0" fill="url(#X)"/><path d="m178.535156 172c-1.390625-1.457031-3.601562-1.949219-5.519531-1.027344l-25.886719 12.410156c-2.382812 1.144532-3.390625 4.003907-2.246094 6.386719.300782.625.722657 1.148438 1.222657 1.574219l17.882812 17.882812c1.394531 1.460938 3.601563 1.949219 5.519531 1.03125l25.886719-12.414062c2.382813-1.140625 3.390625-4 2.246094-6.382812-.296875-.625-.722656-1.152344-1.222656-1.574219zm0 0" fill="url(#Y)"/><path d="m41.203125 209.414062c-2.367187-1.171874-3.339844-4.042968-2.167969-6.410156l12.734375-25.734375c1.171875-2.367187 4.042969-3.335937 6.410157-2.164062 2.371093 1.171875 3.339843 4.042969 2.167968 6.410156l-12.734375 25.730469c-1.171875 2.371094-4.042969 3.339844-6.410156 2.167968zm0 0" fill="url(#Z)"/><path d="m137.367188 248.953125c-2.347657 1.21875-5.234376.300781-6.449219-2.042969l-13.222657-25.484375c-1.214843-2.347656-.300781-5.234375 2.042969-6.453125 2.347657-1.214844 5.234375-.300781 6.453125 2.042969l13.21875 25.488281c1.21875 2.34375.300782 5.234375-2.042968 6.449219zm0 0" fill="url(#aa)"/><path d="m101.679688 181.964844c-2.574219-.597656-4.179688-3.167969-3.582032-5.742188l6.496094-27.964844c.597656-2.574218 3.167969-4.179687 5.742188-3.582031 2.574218.597657 4.175781 3.171875 3.578124 5.746094l-6.492187 27.964844c-.597656 2.574219-3.167969 4.175781-5.742187 3.578125zm0 0" fill="url(#ab)"/><path d="m62.277344 226.207031c1.421875-2.222656 4.382812-2.875 6.609375-1.449219l24.1875 15.464844c2.222656 1.425782 2.875 4.386719 1.449219 6.609375-1.421876 2.226563-4.382813 2.878907-6.605469 1.453125l-24.1875-15.46875c-2.226563-1.421875-2.875-4.382812-1.453125-6.609375zm0 0" fill="url(#ac)"/><path d="m179.398438 173.21875c1.144531 2.382812.136718 5.242188-2.246094 6.382812l-25.886719 12.414063c-2.382813 1.140625-5.242187.136719-6.382813-2.246094-1.144531-2.382812-.136718-5.242187 2.242188-6.386719l25.890625-12.410156c2.382813-1.144531 5.242187-.136718 6.382813 2.246094zm0 0" fill="url(#ad)"/></svg>